<svg xmlns="http://www.w3.org/2000/svg" width="30" height="30" fill="none" style="position:absolute;top:17px;right:8px"><path fill="#158f56" d="M14.992 25.823c5.918 0 10.816-4.89 10.816-10.808S20.902 4.208 14.983 4.208c-5.91 0-10.799 4.889-10.799 10.807 0 5.919 4.898 10.808 10.808 10.808Zm-1.328-5.38c-.308 0-.548-.124-.814-.44L9.654 16.12a.955.955 0 0 1-.232-.606c0-.44.349-.764.755-.764.266 0 .49.1.706.374l2.747 3.445 5.164-8.21c.174-.282.415-.423.663-.423.399 0 .79.274.79.714 0 .2-.109.423-.225.606l-5.586 8.74c-.2.308-.457.449-.772.449Z"></path></svg>